{
 "cells": [
  {
   "cell_type": "code",
   "execution_count": 1,
   "id": "7be003dc",
   "metadata": {},
   "outputs": [],
   "source": [
    "\n",
    "from pathlib import Path\n",
    "import re, json, shutil, subprocess\n",
    "import os"
   ]
  },
  {
   "cell_type": "code",
   "execution_count": 34,
   "id": "9eb588f0",
   "metadata": {},
   "outputs": [
    {
     "name": "stdout",
     "output_type": "stream",
     "text": [
      "\n",
      "=== ORDER (filtered, ignore old prefix) ===\n",
      "第1季_第1集_满腹猪鸡.m4a\n",
      "第1季_第2集_惊鸿一瞥.m4a\n",
      "第1季_第3集_心肝乖乖.m4a\n",
      "第1季_第4集_林中学射.m4a\n",
      "第1季_第5集_臣委屈（哭）.m4a\n",
      "第1季_第6集_门柜床梁.m4a\n",
      "第1季_第7集_临危受托.m4a\n",
      "第1季_第8集_梳洗之刑.m4a\n",
      "第1季_第9集_好戏开场.m4a\n",
      "第1季_第10集_看上你了.m4a\n",
      "第1季_第11集_小妾风波.m4a\n",
      "第1季_第12集_生辰加冠.m4a\n",
      "第1季_第13集_祸起灵光.m4a\n",
      "第1季_第14集_水榭纠缠.m4a\n",
      "第1季_第15集_临别送行.m4a\n",
      "第1季_第16集_心念紫宸.m4a\n",
      "第1季_第17集_天远地阔.m4a\n",
      "第1季_第18集_病入膏肓.m4a\n",
      "第1季_第19集_愿者上钩.m4a\n",
      "第1季_第20集（上）_贪心一刻.m4a\n",
      "第1季_第20集（下）_罡风四起.m4a\n",
      "\n",
      "=== RENAME PLAN ===\n",
      "01_第1季_第1集_满腹猪鸡.m4a  →  01_第1季_第1集_满腹猪鸡.m4a\n",
      "02_第1季_第2集_惊鸿一瞥.m4a  →  02_第1季_第2集_惊鸿一瞥.m4a\n",
      "03_第1季_第3集_心肝乖乖.m4a  →  03_第1季_第3集_心肝乖乖.m4a\n",
      "04_第1季_第4集_林中学射.m4a  →  04_第1季_第4集_林中学射.m4a\n",
      "05_第1季_第5集_臣委屈（哭）.m4a  →  05_第1季_第5集_臣委屈（哭）.m4a\n",
      "06_第1季_第6集_门柜床梁.m4a  →  06_第1季_第6集_门柜床梁.m4a\n",
      "07_第1季_第7集_临危受托.m4a  →  07_第1季_第7集_临危受托.m4a\n",
      "08_第1季_第8集_梳洗之刑.m4a  →  08_第1季_第8集_梳洗之刑.m4a\n",
      "09_第1季_第9集_好戏开场.m4a  →  09_第1季_第9集_好戏开场.m4a\n",
      "10_第1季_第10集_看上你了.m4a  →  10_第1季_第10集_看上你了.m4a\n",
      "11_第1季_第11集_小妾风波.m4a  →  11_第1季_第11集_小妾风波.m4a\n",
      "12_第1季_第12集_生辰加冠.m4a  →  12_第1季_第12集_生辰加冠.m4a\n",
      "13_第1季_第13集_祸起灵光.m4a  →  13_第1季_第13集_祸起灵光.m4a\n",
      "14_第1季_第14集_水榭纠缠.m4a  →  14_第1季_第14集_水榭纠缠.m4a\n",
      "15_第1季_第15集_临别送行.m4a  →  15_第1季_第15集_临别送行.m4a\n",
      "16_第1季_第16集_心念紫宸.m4a  →  16_第1季_第16集_心念紫宸.m4a\n",
      "17_第1季_第17集_天远地阔.m4a  →  17_第1季_第17集_天远地阔.m4a\n",
      "18_第1季_第18集_病入膏肓.m4a  →  18_第1季_第18集_病入膏肓.m4a\n",
      "19_第1季_第19集_愿者上钩.m4a  →  19_第1季_第19集_愿者上钩.m4a\n",
      "20_第1季_第20集（上）_贪心一刻.m4a  →  20_第1季_第20集（上）_贪心一刻.m4a\n",
      "21_第1季_第20集（下）_罡风四起.m4a  →  21_第1季_第20集（下）_罡风四起.m4a\n",
      "\n",
      "[DRY RUN] No files were renamed.\n"
     ]
    }
   ],
   "source": [
    "\n",
    "def _natural_key(s: str):\n",
    "    return [int(t) if t.isdigit() else t.lower() for t in re.split(r\"(\\d+)\", s)]\n",
    "\n",
    "def renumber_files_macname(\n",
    "    folder_path,\n",
    "    dry_run=True,\n",
    "    digits=2,\n",
    "    skip_hidden=True,\n",
    "):\n",
    "    folder = Path(folder_path)\n",
    "\n",
    "    files = []\n",
    "    for f in folder.iterdir():\n",
    "        if not f.is_file():\n",
    "            continue\n",
    "        if skip_hidden and f.name.startswith(\".\"):\n",
    "            continue\n",
    "        files.append(f)\n",
    "\n",
    "    def cleaned_for_sort(name: str) -> str:\n",
    "        # 排序时忽略已有编号前缀\n",
    "        return re.sub(r\"^\\d+_\", \"\", name)\n",
    "\n",
    "    files.sort(key=lambda p: _natural_key(cleaned_for_sort(p.name)))\n",
    "\n",
    "    print(\"\\n=== ORDER (filtered, ignore old prefix) ===\")\n",
    "    for f in files:\n",
    "        print(cleaned_for_sort(f.name))\n",
    "\n",
    "    plan = []\n",
    "    for idx, f in enumerate(files, start=1):\n",
    "        cleaned = cleaned_for_sort(f.name)\n",
    "        new_name = f\"{idx:0{digits}d}_{cleaned}\"\n",
    "        plan.append((f, new_name))\n",
    "\n",
    "    print(\"\\n=== RENAME PLAN ===\")\n",
    "    for f, new_name in plan:\n",
    "        print(f\"{f.name}  →  {new_name}\")\n",
    "\n",
    "    if dry_run:\n",
    "        print(\"\\n[DRY RUN] No files were renamed.\")\n",
    "        return\n",
    "\n",
    "    # 两步改名避免撞名\n",
    "    temp_plan = []\n",
    "    for i, (f, new_name) in enumerate(plan, start=1):\n",
    "        tmp_name = f\".__tmp__{i:05d}__{f.name}\"\n",
    "        tmp_path = folder / tmp_name\n",
    "        f.rename(tmp_path)\n",
    "        temp_plan.append((tmp_path, folder / new_name))\n",
    "\n",
    "    for tmp_path, final_path in temp_plan:\n",
    "        tmp_path.rename(final_path)\n",
    "\n",
    "    print(\"\\nRenaming complete.\")\n",
    "\n",
    "renumber_files_macname(\"audio\", dry_run=True)\n",
    "# renumber_files_macname(\"audio\", dry_run=False)"
   ]
  },
  {
   "cell_type": "code",
   "execution_count": 36,
   "id": "1cb3f4b1",
   "metadata": {},
   "outputs": [
    {
     "name": "stdout",
     "output_type": "stream",
     "text": [
      "\n",
      "=== RENAME PLAN ===\n",
      "30_小剧场_雨后风荷.m4a  →  33_小剧场_雨后风荷.m4a\n",
      "58_花絮1.m4a  →  61_花絮1.m4a\n",
      "52_800w福利_与君书_手书.m4a  →  55_800w福利_与君书_手书.m4a\n",
      "27_小剧场_假神仙.m4a  →  30_小剧场_假神仙.m4a\n",
      "31_冬至特别语音.m4a  →  34_冬至特别语音.m4a\n",
      "47_500w特别剧场_罄露_情动.m4a  →  50_500w特别剧场_罄露_情动.m4a\n",
      "59_花絮2.m4a  →  62_花絮2.m4a\n",
      "35_元宵特别语音.m4a  →  38_元宵特别语音.m4a\n",
      "53_800w福利_与君书_批注.m4a  →  56_800w福利_与君书_批注.m4a\n",
      "45_500w特别剧场_罄露_同榻.m4a  →  48_500w特别剧场_罄露_同榻.m4a\n",
      "37_祝苏大人生辰康乐.m4a  →  40_祝苏大人生辰康乐.m4a\n",
      "65_特别花絮.m4a  →  68_特别花絮.m4a\n",
      "43_300w福利_得闲_断袖.m4a  →  46_300w福利_得闲_断袖.m4a\n",
      "56_800w福利_与君书_纸条.m4a  →  59_800w福利_与君书_纸条.m4a\n",
      "49_500w特别剧场_罄露_邀吻.m4a  →  52_500w特别剧场_罄露_邀吻.m4a\n",
      "28_小剧场_冯党苏党？.m4a  →  31_小剧场_冯党苏党？.m4a\n",
      "32_元旦特别语音.m4a  →  35_元旦特别语音.m4a\n",
      "54_800w福利_与君书_日记.m4a  →  57_800w福利_与君书_日记.m4a\n",
      "26_小剧场_小爷难缠.m4a  →  29_小剧场_小爷难缠.m4a\n",
      "64_花絮7.m4a  →  67_花絮7.m4a\n",
      "25_小剧场_鸳鸯腿.m4a  →  28_小剧场_鸳鸯腿.m4a\n",
      "38_100W福利音_小憩.m4a  →  41_100W福利音_小憩.m4a\n",
      "60_花絮3.m4a  →  63_花絮3.m4a\n",
      "33_除夕特别剧场_“朱”你新年快乐.m4a  →  36_除夕特别剧场_“朱”你新年快乐.m4a\n",
      "61_花絮4.m4a  →  64_花絮4.m4a\n",
      "50_800w福利_与君书_便笺.m4a  →  53_800w福利_与君书_便笺.m4a\n",
      "48_500w特别剧场_罄露_日常.m4a  →  51_500w特别剧场_罄露_日常.m4a\n",
      "29_小剧场_羊肠线.m4a  →  32_小剧场_羊肠线.m4a\n",
      "40_300w福利_得闲_埋酒.m4a  →  43_300w福利_得闲_埋酒.m4a\n",
      "42_300w福利_得闲_描眉.m4a  →  45_300w福利_得闲_描眉.m4a\n",
      "44_300w福利_得闲_隔屏.m4a  →  47_300w福利_得闲_隔屏.m4a\n",
      "41_300w福利_得闲_惊梦.m4a  →  44_300w福利_得闲_惊梦.m4a\n",
      "62_花絮5.m4a  →  65_花絮5.m4a\n",
      "34_除夕特别剧场_大家一起吃饺子.m4a  →  37_除夕特别剧场_大家一起吃饺子.m4a\n",
      "36_劳动节特别语音.m4a  →  39_劳动节特别语音.m4a\n",
      "57_900w福利_当一个男人发错信息.m4a  →  60_900w福利_当一个男人发错信息.m4a\n",
      "63_花絮6.m4a  →  66_花絮6.m4a\n",
      "39_300w福利_得闲_劝学.m4a  →  42_300w福利_得闲_劝学.m4a\n",
      "46_500w特别剧场_罄露_啮臂.m4a  →  49_500w特别剧场_罄露_啮臂.m4a\n",
      "55_800w福利_与君书_留信.m4a  →  58_800w福利_与君书_留信.m4a\n",
      "51_800w福利_与君书_嘱托.m4a  →  54_800w福利_与君书_嘱托.m4a\n",
      "\n",
      "[DRY RUN] No files renamed.\n"
     ]
    }
   ],
   "source": [
    "\n",
    "def add_to_prefix_number(folder_path, x, dry_run=True):\n",
    "    folder = Path(folder_path)\n",
    "\n",
    "    print(\"\\n=== RENAME PLAN ===\")\n",
    "\n",
    "    for f in folder.iterdir():\n",
    "        if not f.is_file():\n",
    "            continue\n",
    "        \n",
    "        # 跳过 DS_Store\n",
    "        if \".DS_Store\" in f.name:\n",
    "            continue\n",
    "\n",
    "        # 匹配开头数字_\n",
    "        match = re.match(r'^(\\d+)_', f.name)\n",
    "        if not match:\n",
    "            continue  # 没有数字前缀就跳过\n",
    "\n",
    "        old_number = int(match.group(1))\n",
    "        new_number = old_number + x\n",
    "\n",
    "        # 保持原位数（比如 01 → 03）\n",
    "        width = len(match.group(1))\n",
    "        new_prefix = f\"{new_number:0{width}d}_\"\n",
    "\n",
    "        # 替换旧前缀\n",
    "        new_name = re.sub(r'^\\d+_', new_prefix, f.name)\n",
    "\n",
    "        print(f\"{f.name}  →  {new_name}\")\n",
    "\n",
    "        if not dry_run:\n",
    "            f.rename(folder / new_name)\n",
    "\n",
    "    if dry_run:\n",
    "        print(\"\\n[DRY RUN] No files renamed.\")\n",
    "    else:\n",
    "        print(\"\\nRenaming complete.\")\n",
    "\n",
    "add_to_prefix_number(\"add\", x=3, dry_run=True)\n",
    "# add_to_prefix_number(\"add\", x=3, dry_run=False)"
   ]
  },
  {
   "cell_type": "code",
   "execution_count": 49,
   "id": "75fddbdb",
   "metadata": {},
   "outputs": [
    {
     "name": "stdout",
     "output_type": "stream",
     "text": [
      "Found 41 files:\n",
      " - 01_第2季_第1集（上）_非我族类.m4a\n",
      " - 02_第2季_第1集（下）_追根究底.m4a\n",
      " - 03_第2季_第2集_相思无尽.m4a\n",
      " - 04_第2季_第3集_好梦一晌.m4a\n",
      " - 05_第2季_第4集_再（不）谐鱼水.m4a\n",
      " - 06_第2季_第5集_梅仙衔梅.m4a\n",
      " - 07_第2季_第6集_一厢情愿.m4a\n",
      " - 08_第2季_第7集_攀枝窃香.m4a\n",
      " - 09_第2季_第8集_恕难从命.m4a\n",
      " - 10_第2季_第9集_佛闻弃禅.m4a\n",
      " - 11_第2季_第10集_牵钩之戏.m4a\n",
      " - 12_第2季_第11集_海晏河清.m4a\n",
      " - 13_第2季_第12集_白首不离.m4a\n",
      " - 14_第2季_第13集_断袖重接（？）.m4a\n",
      " - 15_第2季_第14集_出师未捷.m4a\n",
      " - 16_第2季_第15集_顺应天意.m4a\n",
      " - 17_第2季_第16集_甘为锁链.m4a\n",
      " - 18_第2季_第17集_无名战神.m4a\n",
      " - 19_第2季_第18集_怒斥群臣.m4a\n",
      " - 20_第2季_第19集_道之所在.m4a\n",
      " - 21_第2季_第20集（上）_暂时结盟.m4a\n",
      " - 22_第2季_第20集（下）_暗流再起.m4a\n",
      " - 23_倒计时3天_爬到上面.m4a\n",
      " - 24_倒计时2天_似曾相识.m4a\n",
      " - 25_倒计时1天_黄色废料.m4a\n",
      " - 26_小剧场_好小妾.m4a\n",
      " - 27_小剧场_鸿雁传书.m4a\n",
      " - 28_小剧场_鳌山灯会.m4a\n",
      " - 29_小剧场_后爹在哪里.m4a\n",
      " - 30_小剧场_怪哉怪哉.m4a\n",
      " - 31_冬至特别语音_饺子也攻斗.m4a\n",
      " - 32_元旦特别来电.m4a\n",
      " - 33_除夕特别剧场_饺子饺子饺子.m4a\n",
      " - 34_除夕特别剧场_大铭有春晚.m4a\n",
      " - 35_元宵特别语音.m4a\n",
      " - 36_100W福利音_早起.m4a\n",
      " - 37_200W福利音_苏相更新了朋友圈.m4a\n",
      " - 38_400W福利音_苏相更新了朋友圈（2）.m4a\n",
      " - 39_花絮1.m4a\n",
      " - 40_花絮2.m4a\n",
      " - 41_花絮3.m4a\n"
     ]
    }
   ],
   "source": [
    "\n",
    "\n",
    "# 再世权臣_天谢_苏晏/倒霉死勒_朱栩竟/顺子_朱槿隚/赵成晨_沈柒/马正阳_阿勒坦/余昊威_荆红追/邓宥希_朱贺霖/余昌宇\n",
    "ALBUM      = \"再世权臣_第2季_天谢\" # 专辑/系列名（Option A/B 都用这个）\n",
    "BOOK_TITLE = ALBUM      # Option B 的大文件 Title\n",
    "AUTHOR     = \"苏晏/倒霉死勒_朱栩竟/顺子_朱槿隚/赵成晨_沈柒/马正阳_阿勒坦/余昊威_荆红追/邓宥希_朱贺霖/余昌宇\"          # 作者/播音\n",
    "COVER      = Path(\"cover.jpg\")  # 封面文件名固定 cover.jpg\n",
    "INPUT_DIR  = Path(\"audio\")      # 音频文件夹\n",
    "\n",
    "# =======================\n",
    "\n",
    "assert INPUT_DIR.exists(), \"找不到 audio 文件夹，请确认 notebook 的工作目录\"\n",
    "assert COVER.exists(), \"找不到 cover.jpg，请把封面放在 notebook 同级目录\"\n",
    "\n",
    "def which(cmd):\n",
    "    p = shutil.which(cmd)\n",
    "    if not p:\n",
    "        raise RuntimeError(f\"未找到 {cmd}，请先安装：brew install ffmpeg\")\n",
    "    return p\n",
    "\n",
    "FFMPEG = which(\"ffmpeg\")\n",
    "FFPROBE = which(\"ffprobe\")\n",
    "\n",
    "def sort_key(p: Path):\n",
    "    name = p.stem\n",
    "    \n",
    "    # 取文件名前面的数字\n",
    "    m = re.match(r\"^\\d+\", name)\n",
    "    if m:\n",
    "        return int(m.group())\n",
    "    \n",
    "    # 如果没有数字就放最后\n",
    "    return float(\"inf\")\n",
    "\n",
    "files = sorted(INPUT_DIR.glob(\"*.m4a\"), key=sort_key)\n",
    "assert files, \"audio/ 里没找到 .m4a 文件\"\n",
    "\n",
    "print(f\"Found {len(files)} files:\")\n",
    "for f in files:\n",
    "    print(\" -\", f.name)"
   ]
  },
  {
   "cell_type": "markdown",
   "id": "dcc06807",
   "metadata": {},
   "source": [
    "# Option B：合并成一个 .m4b + 章节（chapter markers）"
   ]
  },
  {
   "cell_type": "code",
   "execution_count": 50,
   "id": "be59b317",
   "metadata": {},
   "outputs": [
    {
     "name": "stdout",
     "output_type": "stream",
     "text": [
      "Merging...\n"
     ]
    },
    {
     "name": "stderr",
     "output_type": "stream",
     "text": [
      "ffmpeg version 8.0.1 Copyright (c) 2000-2025 the FFmpeg developers\n",
      "  built with Apple clang version 17.0.0 (clang-1700.6.3.2)\n",
      "  configuration: --prefix=/opt/homebrew/Cellar/ffmpeg/8.0.1_4 --enable-shared --enable-pthreads --enable-version3 --cc=clang --host-cflags= --host-ldflags= --enable-ffplay --enable-gpl --enable-libsvtav1 --enable-libopus --enable-libx264 --enable-libmp3lame --enable-libdav1d --enable-libvpx --enable-libx265 --enable-openssl --enable-videotoolbox --enable-audiotoolbox --enable-neon\n",
      "  libavutil      60.  8.100 / 60.  8.100\n",
      "  libavcodec     62. 11.100 / 62. 11.100\n",
      "  libavformat    62.  3.100 / 62.  3.100\n",
      "  libavdevice    62.  1.100 / 62.  1.100\n",
      "  libavfilter    11.  4.100 / 11.  4.100\n",
      "  libswscale      9.  1.100 /  9.  1.100\n",
      "  libswresample   6.  1.100 /  6.  1.100\n",
      "[mov,mp4,m4a,3gp,3g2,mj2 @ 0x7cf418280] Detected creation time before 1970, parsing as unix timestamp.\n",
      "Input #0, concat, from '再世权臣_第2季_天谢/concat_list.txt':\n",
      "  Duration: N/A, start: -0.036281, bitrate: 64 kb/s\n",
      "  Stream #0:0(und): Audio: aac (LC) (mp4a / 0x6134706D), 44100 Hz, stereo, fltp, 64 kb/s, start -0.036281\n",
      "    Metadata:\n",
      "      creation_time   : 2026-02-28T14:25:40.000000Z\n",
      "      handler_name    : SoundHandler\n",
      "      vendor_id       : [0][0][0][0]\n",
      "Stream mapping:\n",
      "  Stream #0:0 -> #0:0 (copy)\n",
      "Output #0, ipod, to '再世权臣_第2季_天谢/merged_tmp.m4b':\n",
      "  Metadata:\n",
      "    encoder         : Lavf62.3.100\n",
      "  Stream #0:0(und): Audio: aac (LC) (mp4a / 0x6134706D), 44100 Hz, stereo, fltp, 64 kb/s\n",
      "    Metadata:\n",
      "      creation_time   : 2026-02-28T14:25:40.000000Z\n",
      "      handler_name    : SoundHandler\n",
      "      vendor_id       : [0][0][0][0]\n",
      "Press [q] to stop, [?] for help\n",
      "[mov,mp4,m4a,3gp,3g2,mj2 @ 0x7cf418280] Detected creation time before 1970, parsing as unix timestamp.\n",
      "[mov,mp4,m4a,3gp,3g2,mj2 @ 0x7cf418280] Detected creation time before 1970, parsing as unix timestamp.\n",
      "    Last message repeated 1 times\n",
      "[mov,mp4,m4a,3gp,3g2,mj2 @ 0x7cf418280] Detected creation time before 1970, parsing as unix timestamp.\n",
      "    Last message repeated 1 times\n",
      "[mov,mp4,m4a,3gp,3g2,mj2 @ 0x7cf418280] Detected creation time before 1970, parsing as unix timestamp.\n",
      "    Last message repeated 1 times\n",
      "[mov,mp4,m4a,3gp,3g2,mj2 @ 0x7cf418280] Detected creation time before 1970, parsing as unix timestamp.\n",
      "    Last message repeated 1 times\n",
      "[mov,mp4,m4a,3gp,3g2,mj2 @ 0x7cf418280] Detected creation time before 1970, parsing as unix timestamp.\n",
      "[mov,mp4,m4a,3gp,3g2,mj2 @ 0x7cf418280] Detected creation time before 1970, parsing as unix timestamp.\n",
      "    Last message repeated 1 times\n",
      "[mov,mp4,m4a,3gp,3g2,mj2 @ 0x7cf418280] Detected creation time before 1970, parsing as unix timestamp.\n",
      "    Last message repeated 1 times\n",
      "[mov,mp4,m4a,3gp,3g2,mj2 @ 0x7cf418280] Detected creation time before 1970, parsing as unix timestamp.\n",
      "    Last message repeated 1 times\n",
      "[mov,mp4,m4a,3gp,3g2,mj2 @ 0x7cf418280] Detected creation time before 1970, parsing as unix timestamp.\n",
      "[mov,mp4,m4a,3gp,3g2,mj2 @ 0x7cf418280] Detected creation time before 1970, parsing as unix timestamp.\n",
      "    Last message repeated 1 times\n",
      "[mov,mp4,m4a,3gp,3g2,mj2 @ 0x7cf418280] Detected creation time before 1970, parsing as unix timestamp.\n",
      "    Last message repeated 1 times\n",
      "[mov,mp4,m4a,3gp,3g2,mj2 @ 0x7cf418280] Detected creation time before 1970, parsing as unix timestamp.\n",
      "    Last message repeated 15 times\n",
      "[mov,mp4,m4a,3gp,3g2,mj2 @ 0x7cf418280] Detected creation time before 1970, parsing as unix timestamp.\n"
     ]
    },
    {
     "name": "stdout",
     "output_type": "stream",
     "text": [
      "✅ merged tmp: /Users/jijiko/Desktop/GitHub/tools/m4a_to_audiobook/再世权臣_第2季_天谢/merged_tmp.m4b\n"
     ]
    },
    {
     "name": "stderr",
     "output_type": "stream",
     "text": [
      "    Last message repeated 2 times\n",
      "[out#0/ipod @ 0x7ce80c780] video:0KiB audio:599115KiB subtitle:0KiB other streams:0KiB global headers:0KiB muxing overhead: 2.154580%\n",
      "size=  612023KiB time=21:18:03.27 bitrate=  65.4kbits/s speed=1.06e+04x elapsed=0:00:07.21    \n"
     ]
    }
   ],
   "source": [
    "OUT_B = Path(ALBUM)\n",
    "OUT_B.mkdir(exist_ok=True)\n",
    "\n",
    "concat_list = OUT_B / \"concat_list.txt\"\n",
    "with concat_list.open(\"w\", encoding=\"utf-8\") as f:\n",
    "    for p in files:\n",
    "        abs_path = p.resolve().as_posix()\n",
    "        abs_path = abs_path.replace(\"'\", r\"'\\''\")\n",
    "        f.write(f\"file '{abs_path}'\\n\")\n",
    "\n",
    "merged_tmp = OUT_B / \"merged_tmp.m4b\"\n",
    "\n",
    "cmd = [\n",
    "    FFMPEG, \"-y\",\n",
    "    \"-f\", \"concat\", \"-safe\", \"0\",\n",
    "    \"-i\", str(concat_list),\n",
    "    \"-c\", \"copy\",\n",
    "    str(merged_tmp)\n",
    "]\n",
    "print(\"Merging...\")\n",
    "subprocess.run(cmd, check=True)\n",
    "print(f\"✅ merged tmp: {merged_tmp.resolve()}\")"
   ]
  },
  {
   "cell_type": "code",
   "execution_count": 51,
   "id": "584138b9",
   "metadata": {},
   "outputs": [
    {
     "name": "stdout",
     "output_type": "stream",
     "text": [
      "First 5 durations (sec): [2327.08, 3189.631995, 2792.71, 2543.165011, 2722.840998]\n",
      "Total: 21.30 hours\n"
     ]
    }
   ],
   "source": [
    "def duration_seconds(path: Path) -> float:\n",
    "    cmd = [\n",
    "        FFPROBE, \"-v\", \"error\",\n",
    "        \"-select_streams\", \"a:0\",\n",
    "        \"-show_entries\", \"format=duration\",\n",
    "        \"-of\", \"json\",\n",
    "        str(path)\n",
    "    ]\n",
    "    out = subprocess.check_output(cmd)\n",
    "    data = json.loads(out)\n",
    "    return float(data[\"format\"][\"duration\"])\n",
    "\n",
    "durations = [duration_seconds(p) for p in files]\n",
    "print(\"First 5 durations (sec):\", durations[:5])\n",
    "print(f\"Total: {sum(durations)/3600:.2f} hours\")"
   ]
  },
  {
   "cell_type": "code",
   "execution_count": 52,
   "id": "c4d9a4cb",
   "metadata": {},
   "outputs": [
    {
     "name": "stdout",
     "output_type": "stream",
     "text": [
      "✅ ffmeta: /Users/jijiko/Desktop/GitHub/tools/m4a_to_audiobook/再世权臣_第2季_天谢/chapters.ffmeta\n",
      "Writing final m4b with chapters + cover + metadata...\n"
     ]
    },
    {
     "name": "stderr",
     "output_type": "stream",
     "text": [
      "ffmpeg version 8.0.1 Copyright (c) 2000-2025 the FFmpeg developers\n",
      "  built with Apple clang version 17.0.0 (clang-1700.6.3.2)\n",
      "  configuration: --prefix=/opt/homebrew/Cellar/ffmpeg/8.0.1_4 --enable-shared --enable-pthreads --enable-version3 --cc=clang --host-cflags= --host-ldflags= --enable-ffplay --enable-gpl --enable-libsvtav1 --enable-libopus --enable-libx264 --enable-libmp3lame --enable-libdav1d --enable-libvpx --enable-libx265 --enable-openssl --enable-videotoolbox --enable-audiotoolbox --enable-neon\n",
      "  libavutil      60.  8.100 / 60.  8.100\n",
      "  libavcodec     62. 11.100 / 62. 11.100\n",
      "  libavformat    62.  3.100 / 62.  3.100\n",
      "  libavdevice    62.  1.100 / 62.  1.100\n",
      "  libavfilter    11.  4.100 / 11.  4.100\n",
      "  libswscale      9.  1.100 /  9.  1.100\n",
      "  libswresample   6.  1.100 /  6.  1.100\n",
      "Input #0, mov,mp4,m4a,3gp,3g2,mj2, from '再世权臣_第2季_天谢/merged_tmp.m4b':\n",
      "  Metadata:\n",
      "    major_brand     : M4A \n",
      "    minor_version   : 512\n",
      "    compatible_brands: M4A isomiso2\n",
      "    encoder         : Lavf62.3.100\n",
      "  Duration: 21:18:03.28, start: 0.000000, bitrate: 65 kb/s\n",
      "  Stream #0:0[0x1](und): Audio: aac (LC) (mp4a / 0x6134706D), 44100 Hz, stereo, fltp, 64 kb/s (default)\n",
      "    Metadata:\n",
      "      handler_name    : SoundHandler\n",
      "      vendor_id       : [0][0][0][0]\n",
      "Input #1, image2, from 'cover.jpg':\n",
      "  Duration: 00:00:00.04, start: 0.000000, bitrate: 39482 kb/s\n",
      "  Stream #1:0: Video: mjpeg (Progressive), yuvj420p(pc, bt470bg/unknown/unknown), 2000x2000, 25 fps, 25 tbr, 25 tbn\n",
      "Input #2, ffmetadata, from '再世权臣_第2季_天谢/chapters.ffmeta':\n",
      "  Metadata:\n",
      "    title           : 再世权臣_第2季_天谢\n",
      "    artist          : 苏晏/倒霉死勒_朱栩竟/顺子_朱槿隚/赵成晨_沈柒/马正阳_阿勒坦/余昊威_荆红追/邓宥希_朱贺霖/余昌宇\n",
      "    album           : 再世权臣_第2季_天谢\n",
      "  Duration: 21:18:03.28, start: 0.000000, bitrate: N/A\n",
      "  Chapters:\n",
      "    Chapter #2:0: start 0.000000, end 2327.080000\n",
      "      Metadata:\n",
      "        title           : 01_第2季_第1集（上）_非我族类\n",
      "    Chapter #2:1: start 2327.080000, end 5516.712000\n",
      "      Metadata:\n",
      "        title           : 02_第2季_第1集（下）_追根究底\n",
      "    Chapter #2:2: start 5516.712000, end 8309.422000\n",
      "      Metadata:\n",
      "        title           : 03_第2季_第2集_相思无尽\n",
      "    Chapter #2:3: start 8309.422000, end 10852.587000\n",
      "      Metadata:\n",
      "        title           : 04_第2季_第3集_好梦一晌\n",
      "    Chapter #2:4: start 10852.587000, end 13575.428000\n",
      "      Metadata:\n",
      "        title           : 05_第2季_第4集_再（不）谐鱼水\n",
      "    Chapter #2:5: start 13575.428000, end 16524.594000\n",
      "      Metadata:\n",
      "        title           : 06_第2季_第5集_梅仙衔梅\n",
      "    Chapter #2:6: start 16524.594000, end 19342.590000\n",
      "      Metadata:\n",
      "        title           : 07_第2季_第6集_一厢情愿\n",
      "    Chapter #2:7: start 19342.590000, end 22634.134000\n",
      "      Metadata:\n",
      "        title           : 08_第2季_第7集_攀枝窃香\n",
      "    Chapter #2:8: start 22634.134000, end 26030.052000\n",
      "      Metadata:\n",
      "        title           : 09_第2季_第8集_恕难从命\n",
      "    Chapter #2:9: start 26030.052000, end 29350.250000\n",
      "      Metadata:\n",
      "        title           : 10_第2季_第9集_佛闻弃禅\n",
      "    Chapter #2:10: start 29350.250000, end 32225.600000\n",
      "      Metadata:\n",
      "        title           : 11_第2季_第10集_牵钩之戏\n",
      "    Chapter #2:11: start 32225.600000, end 35450.991000\n",
      "      Metadata:\n",
      "        title           : 12_第2季_第11集_海晏河清\n",
      "    Chapter #2:12: start 35450.991000, end 38548.184000\n",
      "      Metadata:\n",
      "        title           : 13_第2季_第12集_白首不离\n",
      "    Chapter #2:13: start 38548.184000, end 41704.147000\n",
      "      Metadata:\n",
      "        title           : 14_第2季_第13集_断袖重接（？）\n",
      "    Chapter #2:14: start 41704.147000, end 44611.471000\n",
      "      Metadata:\n",
      "        title           : 15_第2季_第14集_出师未捷\n",
      "    Chapter #2:15: start 44611.471000, end 48032.954000\n",
      "      Metadata:\n",
      "        title           : 16_第2季_第15集_顺应天意\n",
      "    Chapter #2:16: start 48032.954000, end 51739.671000\n",
      "      Metadata:\n",
      "        title           : 17_第2季_第16集_甘为锁链\n",
      "    Chapter #2:17: start 51739.671000, end 55201.464000\n",
      "      Metadata:\n",
      "        title           : 18_第2季_第17集_无名战神\n",
      "    Chapter #2:18: start 55201.464000, end 58394.509000\n",
      "      Metadata:\n",
      "        title           : 19_第2季_第18集_怒斥群臣\n",
      "    Chapter #2:19: start 58394.509000, end 61161.468000\n",
      "      Metadata:\n",
      "        title           : 20_第2季_第19集_道之所在\n",
      "    Chapter #2:20: start 61161.468000, end 63695.299000\n",
      "      Metadata:\n",
      "        title           : 21_第2季_第20集（上）_暂时结盟\n",
      "    Chapter #2:21: start 63695.299000, end 66243.340000\n",
      "      Metadata:\n",
      "        title           : 22_第2季_第20集（下）_暗流再起\n",
      "    Chapter #2:22: start 66243.340000, end 66362.063000\n",
      "      Metadata:\n",
      "        title           : 23_倒计时3天_爬到上面\n",
      "    Chapter #2:23: start 66362.063000, end 66533.170000\n",
      "      Metadata:\n",
      "        title           : 24_倒计时2天_似曾相识\n",
      "    Chapter #2:24: start 66533.170000, end 66640.678000\n",
      "      Metadata:\n",
      "        title           : 25_倒计时1天_黄色废料\n",
      "    Chapter #2:25: start 66640.678000, end 67228.305000\n",
      "      Metadata:\n",
      "        title           : 26_小剧场_好小妾\n",
      "    Chapter #2:26: start 67228.305000, end 67681.697000\n",
      "      Metadata:\n",
      "        title           : 27_小剧场_鸿雁传书\n",
      "    Chapter #2:27: start 67681.697000, end 68183.851000\n",
      "      Metadata:\n",
      "        title           : 28_小剧场_鳌山灯会\n",
      "    Chapter #2:28: start 68183.851000, end 68495.694000\n",
      "      Metadata:\n",
      "        title           : 29_小剧场_后爹在哪里\n",
      "    Chapter #2:29: start 68495.694000, end 68830.572000\n",
      "      Metadata:\n",
      "        title           : 30_小剧场_怪哉怪哉\n",
      "    Chapter #2:30: start 68830.572000, end 68940.077000\n",
      "      Metadata:\n",
      "        title           : 31_冬至特别语音_饺子也攻斗\n",
      "    Chapter #2:31: start 68940.077000, end 69054.319000\n",
      "      Metadata:\n",
      "        title           : 32_元旦特别来电\n",
      "    Chapter #2:32: start 69054.319000, end 69284.962000\n",
      "      Metadata:\n",
      "        title           : 33_除夕特别剧场_饺子饺子饺子\n",
      "    Chapter #2:33: start 69284.962000, end 69584.638000\n",
      "      Metadata:\n",
      "        title           : 34_除夕特别剧场_大铭有春晚\n",
      "    Chapter #2:34: start 69584.638000, end 69702.432000\n",
      "      Metadata:\n",
      "        title           : 35_元宵特别语音\n",
      "    Chapter #2:35: start 69702.432000, end 69907.394000\n",
      "      Metadata:\n",
      "        title           : 36_100W福利音_早起\n",
      "    Chapter #2:36: start 69907.394000, end 70096.102000\n",
      "      Metadata:\n",
      "        title           : 37_200W福利音_苏相更新了朋友圈\n",
      "    Chapter #2:37: start 70096.102000, end 70261.010000\n",
      "      Metadata:\n",
      "        title           : 38_400W福利音_苏相更新了朋友圈（2）\n",
      "    Chapter #2:38: start 70261.010000, end 72351.130000\n",
      "      Metadata:\n",
      "        title           : 39_花絮1\n",
      "    Chapter #2:39: start 72351.130000, end 74187.038000\n",
      "      Metadata:\n",
      "        title           : 40_花絮2\n",
      "    Chapter #2:40: start 74187.038000, end 76683.276000\n",
      "      Metadata:\n",
      "        title           : 41_花絮3\n",
      "Stream mapping:\n",
      "  Stream #0:0 -> #0:0 (copy)\n",
      "  Stream #1:0 -> #0:1 (mjpeg (native) -> mjpeg (native))\n",
      "Press [q] to stop, [?] for help\n",
      "Output #0, ipod, to '再世权臣_第2季_天谢/再世权臣_第2季_天谢.m4b':\n",
      "  Metadata:\n",
      "    title           : 再世权臣_第2季_天谢\n",
      "    artist          : 苏晏/倒霉死勒_朱栩竟/顺子_朱槿隚/赵成晨_沈柒/马正阳_阿勒坦/余昊威_荆红追/邓宥希_朱贺霖/余昌宇\n",
      "    album           : 再世权臣_第2季_天谢\n",
      "    encoder         : Lavf62.3.100\n",
      "  Chapters:\n",
      "    Chapter #0:0: start 0.000000, end 2327.080000\n",
      "      Metadata:\n",
      "        title           : 01_第2季_第1集（上）_非我族类\n",
      "    Chapter #0:1: start 2327.080000, end 5516.712000\n",
      "      Metadata:\n",
      "        title           : 02_第2季_第1集（下）_追根究底\n",
      "    Chapter #0:2: start 5516.712000, end 8309.422000\n",
      "      Metadata:\n",
      "        title           : 03_第2季_第2集_相思无尽\n",
      "    Chapter #0:3: start 8309.422000, end 10852.587000\n",
      "      Metadata:\n",
      "        title           : 04_第2季_第3集_好梦一晌\n",
      "    Chapter #0:4: start 10852.587000, end 13575.428000\n",
      "      Metadata:\n",
      "        title           : 05_第2季_第4集_再（不）谐鱼水\n",
      "    Chapter #0:5: start 13575.428000, end 16524.594000\n",
      "      Metadata:\n",
      "        title           : 06_第2季_第5集_梅仙衔梅\n",
      "    Chapter #0:6: start 16524.594000, end 19342.590000\n",
      "      Metadata:\n",
      "        title           : 07_第2季_第6集_一厢情愿\n",
      "    Chapter #0:7: start 19342.590000, end 22634.134000\n",
      "      Metadata:\n",
      "        title           : 08_第2季_第7集_攀枝窃香\n",
      "    Chapter #0:8: start 22634.134000, end 26030.052000\n",
      "      Metadata:\n",
      "        title           : 09_第2季_第8集_恕难从命\n",
      "    Chapter #0:9: start 26030.052000, end 29350.250000\n",
      "      Metadata:\n",
      "        title           : 10_第2季_第9集_佛闻弃禅\n",
      "    Chapter #0:10: start 29350.250000, end 32225.600000\n",
      "      Metadata:\n",
      "        title           : 11_第2季_第10集_牵钩之戏\n",
      "    Chapter #0:11: start 32225.600000, end 35450.991000\n",
      "      Metadata:\n",
      "        title           : 12_第2季_第11集_海晏河清\n",
      "    Chapter #0:12: start 35450.991000, end 38548.184000\n",
      "      Metadata:\n",
      "        title           : 13_第2季_第12集_白首不离\n",
      "    Chapter #0:13: start 38548.184000, end 41704.147000\n",
      "      Metadata:\n",
      "        title           : 14_第2季_第13集_断袖重接（？）\n",
      "    Chapter #0:14: start 41704.147000, end 44611.471000\n",
      "      Metadata:\n",
      "        title           : 15_第2季_第14集_出师未捷\n",
      "    Chapter #0:15: start 44611.471000, end 48032.954000\n",
      "      Metadata:\n",
      "        title           : 16_第2季_第15集_顺应天意\n",
      "    Chapter #0:16: start 48032.954000, end 51739.671000\n",
      "      Metadata:\n",
      "        title           : 17_第2季_第16集_甘为锁链\n",
      "    Chapter #0:17: start 51739.671000, end 55201.464000\n",
      "      Metadata:\n",
      "        title           : 18_第2季_第17集_无名战神\n",
      "    Chapter #0:18: start 55201.464000, end 58394.509000\n",
      "      Metadata:\n",
      "        title           : 19_第2季_第18集_怒斥群臣\n",
      "    Chapter #0:19: start 58394.509000, end 61161.468000\n",
      "      Metadata:\n",
      "        title           : 20_第2季_第19集_道之所在\n",
      "    Chapter #0:20: start 61161.468000, end 63695.299000\n",
      "      Metadata:\n",
      "        title           : 21_第2季_第20集（上）_暂时结盟\n",
      "    Chapter #0:21: start 63695.299000, end 66243.340000\n",
      "      Metadata:\n",
      "        title           : 22_第2季_第20集（下）_暗流再起\n",
      "    Chapter #0:22: start 66243.340000, end 66362.063000\n",
      "      Metadata:\n",
      "        title           : 23_倒计时3天_爬到上面\n",
      "    Chapter #0:23: start 66362.063000, end 66533.170000\n",
      "      Metadata:\n",
      "        title           : 24_倒计时2天_似曾相识\n",
      "    Chapter #0:24: start 66533.170000, end 66640.678000\n",
      "      Metadata:\n",
      "        title           : 25_倒计时1天_黄色废料\n",
      "    Chapter #0:25: start 66640.678000, end 67228.305000\n",
      "      Metadata:\n",
      "        title           : 26_小剧场_好小妾\n",
      "    Chapter #0:26: start 67228.305000, end 67681.697000\n",
      "      Metadata:\n",
      "        title           : 27_小剧场_鸿雁传书\n",
      "    Chapter #0:27: start 67681.697000, end 68183.851000\n",
      "      Metadata:\n",
      "        title           : 28_小剧场_鳌山灯会\n",
      "    Chapter #0:28: start 68183.851000, end 68495.694000\n",
      "      Metadata:\n",
      "        title           : 29_小剧场_后爹在哪里\n",
      "    Chapter #0:29: start 68495.694000, end 68830.572000\n",
      "      Metadata:\n",
      "        title           : 30_小剧场_怪哉怪哉\n",
      "    Chapter #0:30: start 68830.572000, end 68940.077000\n",
      "      Metadata:\n",
      "        title           : 31_冬至特别语音_饺子也攻斗\n",
      "    Chapter #0:31: start 68940.077000, end 69054.319000\n",
      "      Metadata:\n",
      "        title           : 32_元旦特别来电\n",
      "    Chapter #0:32: start 69054.319000, end 69284.962000\n",
      "      Metadata:\n",
      "        title           : 33_除夕特别剧场_饺子饺子饺子\n",
      "    Chapter #0:33: start 69284.962000, end 69584.638000\n",
      "      Metadata:\n",
      "        title           : 34_除夕特别剧场_大铭有春晚\n",
      "    Chapter #0:34: start 69584.638000, end 69702.432000\n",
      "      Metadata:\n",
      "        title           : 35_元宵特别语音\n",
      "    Chapter #0:35: start 69702.432000, end 69907.394000\n",
      "      Metadata:\n",
      "        title           : 36_100W福利音_早起\n",
      "    Chapter #0:36: start 69907.394000, end 70096.102000\n",
      "      Metadata:\n",
      "        title           : 37_200W福利音_苏相更新了朋友圈\n",
      "    Chapter #0:37: start 70096.102000, end 70261.010000\n",
      "      Metadata:\n",
      "        title           : 38_400W福利音_苏相更新了朋友圈（2）\n",
      "    Chapter #0:38: start 70261.010000, end 72351.130000\n",
      "      Metadata:\n",
      "        title           : 39_花絮1\n",
      "    Chapter #0:39: start 72351.130000, end 74187.038000\n",
      "      Metadata:\n",
      "        title           : 40_花絮2\n",
      "    Chapter #0:40: start 74187.038000, end 76683.276000\n",
      "      Metadata:\n",
      "        title           : 41_花絮3\n",
      "  Stream #0:0(und): Audio: aac (LC) (mp4a / 0x6134706D), 44100 Hz, stereo, fltp, 64 kb/s (default)\n",
      "    Metadata:\n",
      "      handler_name    : SoundHandler\n",
      "      vendor_id       : [0][0][0][0]\n",
      "  Stream #0:1: Video: mjpeg, yuvj420p(pc, bt470bg/unknown/unknown, progressive), 2000x2000, q=2-31, 200 kb/s, 25 fps, 12800 tbn (attached pic)\n",
      "    Metadata:\n",
      "      encoder         : Lavc62.11.100 mjpeg\n",
      "    Side data:\n",
      "      ICC Profile\n",
      "      cpb: bitrate max/min/avg: 0/0/200000 buffer size: 0 vbv_delay: N/A\n",
      "frame=    1 fps=0.2 q=9.4 size=  534018KiB time=18:59:44.91 bitrate=  64.0kbits/s speed=1.7e+04x elapsed=0:00:04.03     \r"
     ]
    },
    {
     "name": "stdout",
     "output_type": "stream",
     "text": [
      "✅ Option B done: /Users/jijiko/Desktop/GitHub/tools/m4a_to_audiobook/再世权臣_第2季_天谢/再世权臣_第2季_天谢.m4b\n"
     ]
    },
    {
     "name": "stderr",
     "output_type": "stream",
     "text": [
      "[out#0/ipod @ 0x8aec14300] video:204KiB audio:599115KiB subtitle:0KiB other streams:0KiB global headers:0KiB muxing overhead: 2.154626%\n",
      "frame=    1 fps=0.2 q=9.4 Lsize=  612232KiB time=00:00:00.04 bitrate=125385090.2kbits/s speed=0.00874x elapsed=0:00:04.57    \n"
     ]
    }
   ],
   "source": [
    "ffmeta = OUT_B / \"chapters.ffmeta\"\n",
    "\n",
    "start_ms = 0\n",
    "lines = []\n",
    "lines.append(\";FFMETADATA1\")\n",
    "\n",
    "# 这些是章节文件里的元数据（会被写入容器）\n",
    "lines.append(f\"title={BOOK_TITLE}\")\n",
    "lines.append(f\"artist={AUTHOR}\")\n",
    "lines.append(f\"album={ALBUM}\")\n",
    "\n",
    "for p, d in zip(files, durations):\n",
    "    end_ms = start_ms + int(round(d * 1000))\n",
    "    chapter_title = p.stem\n",
    "\n",
    "    lines.append(\"[CHAPTER]\")\n",
    "    lines.append(\"TIMEBASE=1/1000\")\n",
    "    lines.append(f\"START={start_ms}\")\n",
    "    lines.append(f\"END={end_ms}\")\n",
    "    lines.append(f\"title={chapter_title}\")\n",
    "\n",
    "    start_ms = end_ms\n",
    "\n",
    "ffmeta.write_text(\"\\n\".join(lines) + \"\\n\", encoding=\"utf-8\")\n",
    "print(f\"✅ ffmeta: {ffmeta.resolve()}\")\n",
    "\n",
    "final_m4b = OUT_B / f\"{BOOK_TITLE}.m4b\"\n",
    "\n",
    "cmd = [\n",
    "    FFMPEG, \"-y\",\n",
    "    \"-i\", str(merged_tmp),\n",
    "    \"-i\", str(COVER),\n",
    "    \"-f\", \"ffmetadata\", \"-i\", str(ffmeta),\n",
    "\n",
    "    \"-map\", \"0:a:0\",\n",
    "    \"-map\", \"1:v:0\",\n",
    "\n",
    "    # 章节 & 元数据来自 ffmeta（第2个输入索引=2）\n",
    "    \"-map_metadata\", \"2\",\n",
    "    \"-map_chapters\", \"2\",\n",
    "\n",
    "    \"-c:a\", \"copy\",\n",
    "    \"-c:v\", \"mjpeg\",\n",
    "    \"-disposition:v:0\", \"attached_pic\",\n",
    "\n",
    "    str(final_m4b)\n",
    "]\n",
    "\n",
    "print(\"Writing final m4b with chapters + cover + metadata...\")\n",
    "subprocess.run(cmd, check=True)\n",
    "print(f\"✅ Option B done: {final_m4b.resolve()}\")"
   ]
  }
 ],
 "metadata": {
  "kernelspec": {
   "display_name": "3.12.7",
   "language": "python",
   "name": "python3"
  },
  "language_info": {
   "codemirror_mode": {
    "name": "ipython",
    "version": 3
   },
   "file_extension": ".py",
   "mimetype": "text/x-python",
   "name": "python",
   "nbconvert_exporter": "python",
   "pygments_lexer": "ipython3",
   "version": "3.12.7"
  }
 },
 "nbformat": 4,
 "nbformat_minor": 5
}
